<svg fill="none" xmlns="http://www.w3.org/2000/svg" viewBox="237.92 96.65 1762.08 550.2">
  <path d="M1622.661 210.289a977.7 977.7 0 0 0-166.357-30.237c2.372-1.465 3.747-2.453 5.235-3.197 56.32-28.089 115.36-48.401 176.855-61.688a817 817 0 0 1 95.547-14.759c38.052-3.605 76.208-4.483 114.424-3.183 42.089 1.435 83.836 5.777 125.175 13.836 5.1.996 10.164 2.171 15.777 3.383 1.137 7.94 2.395 15.732 3.339 23.553 5.085 42.401 7.896 84.944 7.249 127.665-1.605 105.621-20.312 207.821-61.651 305.443-10.185 24.052-21.769 47.405-35.524 69.643-1.287 2.081-2.692 4.089-4.624 6.081-2.297-57.449-10.081-114.037-22.817-170.921-47.695 39.821-101.628 54.833-162.171 42.075-40.179-8.476-73.732-29.004-100.208-60.409-30.409-36.06-44.811-77.911-43.137-125.033s19.867-87.397 52.892-122.245m130.089 297.547c87.532.817 168.684-69.911 168.699-168.447.015-97.457-80.075-168.551-168.788-168.52-89.272.037-168.773 71.836-168.707 168.624.06 97.755 80.64 169.197 168.796 168.343M449.219 292.223c17.115 20.557 8.803 46.959-7.063 61.613-9.695 8.959-20.929 13.636-34.513 13.547-45.911-.305-91.821-.119-137.725-.119h-8.029c8.84-49.992 17.517-99.16 26.305-148.952h9.189c44.089 0 88.179-.015 132.268.037 4.528 0 9.145.015 13.561.863 14.379 2.751 24.572 14.817 25.561 29.665.967 14.632-3.919 27.167-13.717 37.896-1.673 1.836-3.628 3.412-5.829 5.449zm-146.096 35.956h119.911l2.803-15.763H306.172zm132.193-70.164H315.688l-2.661 14.84h119.844l2.453-14.84m763.963-.393-2.669 15.428h148.112l-6.915 39.056h-148.09c-.937 5.293-1.784 10.141-2.833 16.023 10.112.513 19.755.171 29.383.231 9.777.06 19.553.015 29.331.015h89.339l-6.863 38.892h-140.766c-18.185 0-31.747-12.453-33.933-30.557-1.079-8.967.617-17.584 2.067-26.245 2.468-14.721 5.249-29.405 7.829-44.119 1.963-11.212 6.52-21.175 13.992-29.784 10.023-11.553 22.343-18.253 37.985-18.237 45.249.052 90.499.015 135.747.037.869 0 1.747.245 3.279.483l-6.825 38.788h-148.172zm-61.532 15.917c-1.167 7.027-2.223 13.673-3.391 20.305-1.725 9.807-2.996 19.74-5.405 29.368-5.108 20.424-16.863 35.48-37.345 42.528-3.353 1.145-7.123 1.443-10.707 1.457-33.657.112-67.308-.015-100.959.096-14.401.052-24.044-6.907-30.015-19.509-3.919-8.253-4.647-17.1-3.175-25.948 3.235-19.428 6.253-38.915 10.483-58.133 4.825-21.896 17.524-37.613 39.829-44.029 4.067-1.167 8.535-1.301 12.811-1.308 44.343-.089 88.676-.052 133.027-.044 1.123 0 2.245.127 4.32.253-1.345 13.115-4.483 25.711-6.424 39.011H992.551l-12.461 70.283h113.599l3.019-15.524h-57.175l6.759-38.811h91.472z" fill="#CF2130"/>
  <path d="M1377.844 218.312h7.093c42.751 0 85.495-.029 128.245.052 4.744 0 9.651 0 14.193 1.16 14.387 3.636 22.015 13.844 24.603 27.844.967 5.219.736 10.796.223 16.133a171 171 0 0 1-3.301 20.096c-2.201 10.06-7.717 18.289-15.732 25.487 7.896 10 7.948 21.189 5.501 32.869-1.725 8.179-2.981 16.468-4.491 24.981h-34.216l6.312-37.227c-5.235-1.487-99.027-2.081-113.435-.736l-6.921 37.873h-34.312l26.245-148.528zm135.695 70.989 5.412-31.212H1405.24l-5.524 31.212zM494.246 218.312h60.476c25.011 0 50.037-.06 75.048.06 4.744.015 9.621.119 14.185 1.212 13.569 3.235 22.915 14.744 24.981 29.94q.127 1.019.164 2.037c.744 13.561-1.711 26.765-6.395 39.272-2.543 6.781-7.888 12.505-12.32 19.256 6.655 8.773 7.435 19.449 4.981 30.811-1.859 8.58-3.235 17.272-4.848 26.096h-34.236l6.468-37.345c-5.235-1.443-98.112-1.992-113.509-.647l-6.952 37.844h-34.171c8.476-49.517 17.391-98.759 26.112-148.52zm141.175 39.732H521.68l-5.561 31.256h113.792zm97.316 108.908 26.133-147.985c1.881-.223 3.391-.557 4.907-.565 44.32-.023 88.64.06 132.959-.075 11.769-.029 22.044 2.9 29.397 12.655 7.397 9.836 9.308 21.152 7.412 32.937-3.16 19.651-6.237 39.36-10.609 58.765-4.848 21.576-17.495 37.063-39.465 43.605-2.133.64-4.461.929-6.699.929q-69.888.067-139.777.029c-1.115 0-2.208-.149-4.26-.297M900.2 257.923H786.453c-4.201 23.532-8.535 46.707-12.245 70.141h113.621zM755.725 498.081c-13.412 0-26.825.185-40.223-.112-4.223-.096-8.535-1.1-12.603-2.372-7.041-2.193-12.937-8.572-11.027-19.405 2.008-11.331 5.449-22.409 8.343-33.584 2.885-11.183 5.755-22.372 8.825-33.501 5.345-19.376 18.751-29.553 38.848-29.591q38.855-.052 77.725.023c2.483 0 5.011.089 7.435.58 14.343 2.9 20 11.391 16.588 25.673-3.204 13.435-6.967 26.728-10.491 40.075-2.089 7.881-4.156 15.763-6.335 23.621-5.011 18.029-18.684 28.461-37.561 28.572-13.183.081-26.372.015-39.547.015zm4.201-17.725c11.829 0 23.651.104 35.48-.037 10.029-.119 14.395-3.628 16.996-13.293q7.524-27.881 14.973-55.792c2.885-10.781.401-13.896-11.027-14h-55.264c-5.004 0-10.015-.133-15.004.037-9.249.32-13.651 3.732-16.089 12.684a6275 6275 0 0 0-15.815 59.093c-1.851 7.048.447 10.26 7.553 11.167 1.799.231 3.636.133 5.457.133h32.744zm-105.041-35.084c3.68 17.859 7.197 34.907 10.796 52.431H643.42l-11.123-52.551h-56.275l-14.201 52.491H540.81l31.628-117.888c1.636-.104 2.751-.223 3.867-.223q46.387-.015 92.773 0c.907 0 1.821-.037 2.728.037 16.268 1.308 23.465 11.145 19.695 27.048-1.041 4.409-2.096 8.84-3.569 13.115-4.387 12.788-13.197 20.855-26.483 23.925-1.948.447-3.896.959-6.565 1.621zm-74.075-18.067h66.551c15.339 0 18.253-2.253 22.193-17.145 2.424-9.16-.133-12.505-9.792-12.817-.907-.023-1.821 0-2.728 0h-68.223l-8 29.977zm421.881-47.652-4.728 17.68H909.92c-2.044 0-4.112-.127-6.127.133-7.175.921-12.387 4.216-13.948 11.821-.409 1.992-1.145 3.919-1.591 5.904-1.428 6.349.588 9.397 7.093 10.483 2 .335 4.075.245 6.127.253 20.692.015 41.391-.075 62.081.081a50.7 50.7 0 0 1 12.773 1.657c9.465 2.603 14.208 9.561 13.547 19.345-.208 3.137-.921 6.275-1.673 9.345-1.241 5.056-2.528 10.112-4.104 15.093-5.279 16.707-17.331 26.096-34.907 26.483-32.959.736-65.94.149-98.915.096-.208 0-.431-.149-1.517-.52l4.416-17.071h7.621c27.971 0 55.948.029 83.919-.044a43.3 43.3 0 0 0 8.765-.892c5.1-1.085 8.416-4.416 9.896-9.339 1.628-5.428 3.152-10.885 4.364-16.416 1.183-5.383-.713-8.193-6.179-9.316a44.7 44.7 0 0 0-8.803-.744c-20.692-.067-41.391.075-62.089-.127A41.6 41.6 0 0 1 878 441.429c-9.725-3.272-13.836-11.376-11.717-22.357.855-4.439 2.052-8.84 3.42-13.16 5.011-15.807 16.067-25.524 33.732-26.089 32.699-1.041 65.449-.297 99.264-.297zM521.509 497.867H409.747l31.636-117.963H553.16l-4.64 17.235h-90.632l-7.829 29.189h85.948l-4.796 18.089h-86.013l-9.657 35.821h90.661zm921.561-118.149h111.755l-4.655 17.368h-90.617l-7.881 29.219c28.877.401 56.921-.015 85.888.253l-4.699 17.792h-86l-9.673 35.784h90.676l-4.669 17.532h-111.763l31.651-117.948zm-415.561.045c2.008-.096 3.561-.237 5.123-.237 29.301-.015 58.617-.133 87.925.127 4.632.037 9.487 1.197 13.821 2.907 6.447 2.551 9.867 7.859 9.867 14.915 0 3.137-.26 6.357-.944 9.412-1.345 5.963-3.071 11.829-4.661 17.725-5.16 19.183-18.624 29.688-38.684 29.821-21.584.149-43.175.037-64.751.037h-6.557c-3.963 14.551-7.851 28.877-11.799 43.353h-20.952l31.621-118.067zm5.904 56.692c1.695.149 2.588.283 3.48.283q30.632.037 61.264-.015c2.26 0 4.528-.283 6.773-.588 6.505-.877 10.751-4.32 12.416-10.833 1.331-5.256 2.915-10.447 4.283-15.695 2.201-8.453-.335-11.859-9.1-12.364-.907-.052-1.815-.008-2.721-.008q-30.289-.008-60.58.015c-1.763 0-3.517.223-5.428.364a31865 31865 0 0 1-10.387 38.825zm385.271-39.205h-82.825c-1.821 0-3.643-.075-5.449.023-9.085.52-13.339 4.015-15.807 13.1-3.688 13.553-7.301 27.131-10.944 40.699-1.643 6.119-3.428 12.216-4.944 18.364-1.569 6.357.52 9.547 6.921 10.632 2.216.387 4.528.283 6.796.283q38.201.015 76.401.015h7.397l-4.453 17.227c-1.695.164-3.435.476-5.167.476q-43.316.037-86.632.023c-1.137 0-2.283.037-3.405-.075-15.963-1.553-23.108-11.235-19.167-26.825 5.435-21.524 11.079-42.996 17.1-64.364 4.089-14.499 14.015-26.379 35.131-27.041 30.439-.952 60.937-.223 91.397-.193.439 0 .877.201 2.075.505zM237.919 498.082c10.848-12.439 20.632-23.717 30.468-34.959 22.885-26.149 45.873-52.193 68.572-78.513 3.331-3.867 6.588-5.755 11.599-5.152 2.661.327 5.405.052 8.595.052l39.584 118.364h-23.673l-29.911-94.535c-9.665 11.189-18.572 21.472-27.443 31.769-17.048 19.777-34.119 39.539-51.079 59.397-2.067 2.416-4.133 3.784-7.48 3.636-5.888-.26-11.792-.075-19.227-.075zm868.572 0c12.409-14.231 23.717-27.227 35.056-40.193 21.524-24.609 43.123-49.145 64.528-73.851 2.751-3.167 5.376-5.137 9.769-4.588 3.115.387 6.32.075 9.867.075 13.204 39.449 26.335 78.669 39.584 118.289h-23.703l-29.792-94.327c-2.297 2.551-4.112 4.483-5.836 6.491-23.867 27.68-47.769 55.316-71.48 83.131-3.071 3.613-6.096 5.48-10.937 5.079-5.131-.431-10.327-.096-17.063-.096zM709.115 366.99h-34.393l26.127-147.933h34.379L709.109 366.99m1116.393 8.283c3.056-63.123-4.216-124.647-15.821-186.453a151.7 151.7 0 0 1 42.603 23.919c28.513 22.588 47.36 51.547 56.855 86.64 1.368 5.033 1.033 9.264-2.877 12.973-7.725 7.345-14.825 15.48-23.235 21.933-17.815 13.651-36.305 26.431-54.535 39.553-.699.499-1.584.765-2.996 1.435zm-180.818-155.14c35.293 9.769 68.885 23.056 102.491 39.755-56.543 26.989-105.435 63.465-153.1 101.94-9.732-40.64 6.431-103.457 50.609-141.695m-49.956 150.952a989 989 0 0 1 83.956-63.345c.185 2.595.372 4.253.409 5.904.52 24.699.245 49.443 1.711 74.075 1.807 30.52 6.029 60.84 11.301 90.989.528 3.063.937 6.149 1.435 9.391-39.904-11.368-88.528-58.535-98.803-117.011zm257.384 94.536c-45.293 34.409-95.108 43.204-149.904 27.108A944 944 0 0 1 1688 385.168a513.3 513.3 0 0 0 79.197 46.885c27.428 13.048 55.695 23.956 84.915 33.569m-36.677-175.987c-1.405-.632-2.915-1.079-4.193-1.904-48.759-31.219-100.647-55.68-156.179-72.32-.863-.26-1.688-.655-4.008-1.561 1.755-1.152 2.996-1.881 4.156-2.736 32.409-24.096 68.713-35.011 109.1-32.297 11.145.751 22.029 2.736 32.788 5.673 3.011.825 4.513 2.06 5.041 5.331 2.9 17.881 6.395 35.665 9.027 53.576 2.067 14.112 3.197 28.357 4.699 42.551.119 1.093-.081 2.216-.127 3.331l-.297.357zm-54.32 131.033c55.279-28.305 106.9-60 151.137-103.041.416 2.141 1.011 4.089 1.16 6.067 3.821 50.915-11.873 94.661-47.956 131.079-3.799 3.844-7.079 4.231-11.992 2.751-29.621-8.877-58.253-20.223-86.119-33.569-1.815-.869-3.569-1.881-6.237-3.293z" fill="#CF2130"/>
  <path d="m1815.732 289.272.468.877-.765-.52.297-.372z" fill="#CF2130"/>
</svg>
